<?xml version="1.0" encoding="UTF-8"?>
<svg width="68px" height="8px" viewBox="0 0 68 8" version="1.1" xmlns="http://www.w3.org/2000/svg" xmlns:xlink="http://www.w3.org/1999/xlink">
    <!-- Generator: Sketch 51.1 (57501) - http://www.bohemiancoding.com/sketch -->
    <title>waves</title>
    <desc>Created with Sketch.</desc>
    <defs></defs>
    <g id="Patterns" stroke="none" stroke-width="1" fill="none" fill-rule="evenodd">
        <g id="Artboard" transform="translate(-219.000000, -690.000000)" fill="#000000" fill-rule="nonzero">
            <path d="M219,692 L219,690 C221.095827,690 222.148579,690.886049 223.578428,693.080944 C223.684226,693.243639 223.684226,693.243639 223.788399,693.4036 C225.014395,695.281379 225.79958,695.900584 227.5,695.900584 C229.200144,695.900584 229.984155,695.281965 231.209584,693.403846 C231.312914,693.245084 231.312914,693.245084 231.417848,693.08362 C232.848233,690.886534 233.901315,690 236,690 C238.095827,690 239.148579,690.886049 240.578428,693.080944 C240.684226,693.243639 240.684226,693.243639 240.788399,693.4036 C242.014395,695.281379 242.79958,695.900584 244.5,695.900584 C246.200144,695.900584 246.984155,695.281965 248.209584,693.403846 C248.312914,693.245084 248.312914,693.245084 248.417848,693.08362 C249.848233,690.886534 250.901315,690 253,690 C255.095827,690 256.148579,690.886049 257.578428,693.080944 C257.684226,693.243639 257.684226,693.243639 257.788399,693.4036 C259.014395,695.281379 259.79958,695.900584 261.5,695.900584 C263.200144,695.900584 263.984155,695.281965 265.209584,693.403846 C265.312914,693.245084 265.312914,693.245084 265.417848,693.08362 C266.848233,690.886534 267.901315,690 270,690 C272.095827,690 273.148579,690.886049 274.578428,693.080944 C274.684226,693.243639 274.684226,693.243639 274.788399,693.4036 C276.014395,695.281379 276.79958,695.900584 278.5,695.900584 C280.200144,695.900584 280.984155,695.281965 282.209584,693.403846 C282.312914,693.245084 282.312914,693.245084 282.417848,693.08362 C283.848233,690.886534 284.901315,690 287,690 L287,692 C285.774907,692 285.188354,692.493788 284.093941,694.174819 C283.990582,694.333861 283.990582,694.333861 283.884573,694.496738 C282.327586,696.883008 281.037955,697.900584 278.5,697.900584 C275.962114,697.900584 274.671332,696.882661 273.113732,694.496984 C273.006843,694.332856 273.006843,694.332856 272.902647,694.17262 C271.808843,692.493572 271.222409,692 270,692 C268.774907,692 268.188354,692.493788 267.093941,694.174819 C266.990582,694.333861 266.990582,694.333861 266.884573,694.496738 C265.327586,696.883008 264.037955,697.900584 261.5,697.900584 C258.962114,697.900584 257.671332,696.882661 256.113732,694.496984 C256.006843,694.332856 256.006843,694.332856 255.902647,694.17262 C254.808843,692.493572 254.222409,692 253,692 C251.774907,692 251.188354,692.493788 250.093941,694.174819 C249.990582,694.333861 249.990582,694.333861 249.884573,694.496738 C248.327586,696.883008 247.037955,697.900584 244.5,697.900584 C241.962114,697.900584 240.671332,696.882661 239.113732,694.496984 C239.006843,694.332856 239.006843,694.332856 238.902647,694.17262 C237.808843,692.493572 237.222409,692 236,692 C234.774907,692 234.188354,692.493788 233.093941,694.174819 C232.990582,694.333861 232.990582,694.333861 232.884573,694.496738 C231.327586,696.883008 230.037955,697.900584 227.5,697.900584 C224.962114,697.900584 223.671332,696.882661 222.113732,694.496984 C222.006843,694.332856 222.006843,694.332856 221.902647,694.17262 C220.808843,692.493572 220.222409,692 219,692 Z" id="waves"></path>
        </g>
    </g>
</svg>