<svg version="1.1" id="Layer_1" xmlns="http://www.w3.org/2000/svg" xmlns:xlink="http://www.w3.org/1999/xlink" x="0px" y="0px"
	 viewBox="0 0 444 444" enable-background="new 0 0 444 444" xml:space="preserve">
<path fill-rule="evenodd" clip-rule="evenodd" fill="none" stroke="#000000" stroke-miterlimit="10" d="M249,394c-0.6,0-1.2,0-1.8,0
	c-110.3,0-199.7-88.2-199.7-196.9c0-7.1,0.4-14.1,1.1-21c6.1,45.3,37.4,82.8,79.4,98.4c13.1,4.8,42.5,21.5,51.8,54.4
	c2.2-7.5,3.4-15.5,3.4-23.7c0-20.5-7.4-39.3-19.8-53.9c3.7-4.2,7.1-8.7,10-13.5c0.3-0.5,0.6-1.1,0.9-1.6c0.3-0.5,0.6-1,0.9-1.5
	c0.3-0.6,0.7-1.3,1-1.9c0.3-0.6,0.6-1.2,0.9-1.8c0.4-0.8,0.7-1.6,1.1-2.3c0.2-0.5,0.4-0.9,0.6-1.4c0.3-0.8,0.6-1.5,0.9-2.3
	c0.1-0.4,0.3-0.7,0.4-1.1c0.4-1.1,0.8-2.2,1.1-3.3c0.1-0.4,0.2-0.8,0.4-1.2c0.3-0.9,0.5-1.7,0.7-2.6c0.1-0.4,0.2-0.7,0.3-1.1
	c0.3-1.2,0.6-2.3,0.8-3.5c0.1-0.3,0.1-0.6,0.2-0.9c0.2-1,0.4-1.9,0.5-2.9c0.1-0.3,0.1-0.7,0.2-1c0.2-1.2,0.4-2.5,0.5-3.7
	c0-0.2,0-0.4,0.1-0.6c0.1-1.1,0.2-2.2,0.3-3.3c0-0.3,0-0.7,0.1-1c0.1-1.3,0.1-2.6,0.1-3.9c0-47.1-38.8-85.3-86.6-85.3
	c-47.8,0-86.6,38.2-86.6,85.3c0,1.3,0,2.7,0.1,4c0,0.8,0.1,1.7,0.2,2.5c0,0.4,0.1,0.9,0.1,1.3c0.1,1.1,0.2,2.2,0.4,3.2
	c0,0.1,0,0.3,0,0.4c0.2,1.2,0.3,2.4,0.6,3.5l0,0C8.6,197.9,6,185,6,171.6C6,114.4,53.1,68,111.2,68c58.1,0,105.2,46.4,105.2,103.5
	c0,30.9-13.8,58.7-35.6,77.6c11.1,15.8,17.6,34.9,17.6,55.5c0,4.1-0.3,8-0.8,12C200.6,350.1,220.6,378.7,249,394z"/>
<path fill-rule="evenodd" clip-rule="evenodd" fill="rgba(0,0,0,0)" stroke="#000000" stroke-miterlimit="10" d="M246.7,0
	C355.7,0,444,88.3,444,197.3s-88.3,197.3-197.3,197.3S49.3,306.3,49.3,197.3S137.7,0,246.7,0z"/>
<path fill-rule="evenodd" clip-rule="evenodd" fill="none" stroke="#000000" stroke-miterlimit="10" d="M98.7,209.7
	c54.5,0,98.7,44.2,98.7,98.7c0,54.5-44.2,98.7-98.7,98.7C44.2,407,0,362.8,0,308.3C0,253.8,44.2,209.7,98.7,209.7z"/>
<path fill-rule="evenodd" clip-rule="evenodd" fill="none" stroke="#000000" stroke-miterlimit="10" d="M98.7,223.2
	c47.7,0,86.3,38.4,86.3,85.7c0,47.3-38.6,85.7-86.3,85.7c-47.7,0-86.3-38.4-86.3-85.7C12.3,261.6,51,223.2,98.7,223.2z"/>
<path fill-rule="evenodd" clip-rule="evenodd" fill="none" stroke="#000000" stroke-miterlimit="10" d="M296,214.6
	c54.5,0,98.7,42,98.7,93.7c0,51.8-44.2,93.7-98.7,93.7c-54.5,0-98.7-42-98.7-93.7C197.3,256.6,241.5,214.6,296,214.6z"/>
<path fill-rule="evenodd" clip-rule="evenodd" fill="none" stroke="#000000" stroke-miterlimit="10" d="M98.7,271.3
	c47.7,0,86.3,38.6,86.3,86.3c0,47.7-38.6,86.3-86.3,86.3c-47.7,0-86.3-38.7-86.3-86.3C12.3,310,51,271.3,98.7,271.3z"/>
<path fill-rule="evenodd" clip-rule="evenodd" fill="none" stroke="#000000" stroke-miterlimit="10" d="M172.7,37
	C240.8,37,296,92.2,296,160.3s-55.2,123.3-123.3,123.3S49.3,228.4,49.3,160.3S104.6,37,172.7,37z"/>
<path fill-rule="evenodd" clip-rule="evenodd" fill="none" stroke="#000000" stroke-miterlimit="10" d="M98.7,109.9
	c47.7,0,86.3,38.7,86.3,86.3s-38.6,86.3-86.3,86.3c-47.7,0-86.3-38.7-86.3-86.3S51,109.9,98.7,109.9z"/>
<path fill-rule="evenodd" clip-rule="evenodd" fill="none" stroke="#000000" stroke-miterlimit="10" d="M111,67.8
	c57.9,0,104.8,46.9,104.8,104.8S168.9,277.5,111,277.5S6.2,230.6,6.2,172.7S53.1,67.8,111,67.8z"/>
</svg>
